<svg xmlns="http://www.w3.org/2000/svg" viewBox="0 0 220 220" role="img" aria-label="Símbolo Geovalor">
  <rect width="220" height="220" rx="16" fill="#111311"/>
  <path d="M110 20C60 20 20 60 20 110s40 90 90 90c27 0 51-11 68-30" fill="none" stroke="#C98252" stroke-width="3"/>
  <path d="M110 43C73 43 43 73 43 110s30 67 67 67c22 0 42-10 54-25" fill="none" stroke="#C98252" stroke-width="3" opacity=".65"/>
  <path d="M110 66c-24 0-44 20-44 44s20 44 44 44c16 0 30-8 38-21" fill="none" stroke="#C98252" stroke-width="3" opacity=".4"/>
  <path d="M75 77l35 70 35-70" fill="none" stroke="#E7E6DF" stroke-width="7" stroke-linecap="square"/>
  <path d="M92 112h36" stroke="#C98252" stroke-width="5"/>
</svg>
